<?xml version="1.0" encoding="UTF-8"?>
<svg id="Layer_1" data-name="Layer 1" xmlns="http://www.w3.org/2000/svg" viewBox="0 0 117.67 101.22">
  <defs>
    <style>
      .cls-1 {
        fill: #fff;
      }
    </style>
  </defs>
  <g>
    <path class="cls-1" d="m97.47,55.54s.07.08.12.14c1.78,2.14,12.33,16.25,12.89,16.81h7.2c-1.89-3-9.79-17.37-9.67-19.46.13-2.09-10.53,2.51-10.53,2.51Z"/>
    <path class="cls-1" d="m97.47,45.67s.07-.08.12-.14c1.78-2.14,12.33-16.25,12.89-16.81h7.2c-1.89,3-9.79,17.37-9.67,19.46.13,2.09-10.53-2.51-10.53-2.51Z"/>
  </g>
  <g>
    <path class="cls-1" d="m14.52,44.12c-.25,0-.49.04-.73.1-7.84.53-13.8,3.19-13.8,6.39s5.96,5.86,13.8,6.39c.24.06.48.1.73.1h83.92s.04,0,.06,0c.02,0,.04,0,.07,0,2.99,0,19-2.9,19-6.49s-16.01-6.49-19-6.49c-.02,0-.05,0-.07,0-.02,0-.04,0-.06,0H14.52Z"/>
    <g>
      <g>
        <path class="cls-1" d="m37.76,54.94c1.16,1.81,9.22,14.77,11.48,17.64,1.32,1.48,21.8,27.94,22.74,28.63h5.43c-1.25-3.72-14.2-34.99-14.98-36.78,0-2.33-.08-9.23-.08-10.01s-24.6.51-24.6.51Z"/>
        <path class="cls-1" d="m58.79,83.74c4.92,0,8.9,1.26,8.9,2.8s-3.99,2.81-8.9,2.81-8.9-1.26-8.9-2.81,3.99-2.8,8.9-2.8Z"/>
        <path class="cls-1" d="m47.39,68.48c4.92,0,8.9,1.26,8.9,2.81s-3.99,2.81-8.9,2.81-8.9-1.26-8.9-2.81,3.99-2.81,8.9-2.81Z"/>
      </g>
      <g>
        <path class="cls-1" d="m37.76,46.28c1.16-1.81,9.22-14.77,11.48-17.64,1.32-1.48,21.8-27.94,22.74-28.63h5.43c-1.25,3.72-14.2,35-14.98,36.78,0,2.33-.08,9.23-.08,10.01s-24.6-.51-24.6-.51Z"/>
        <path class="cls-1" d="m58.79,17.48c4.92,0,8.9-1.26,8.9-2.81s-3.99-2.81-8.9-2.81-8.9,1.26-8.9,2.81,3.99,2.81,8.9,2.81Z"/>
        <path class="cls-1" d="m47.39,32.74c4.92,0,8.9-1.26,8.9-2.81s-3.99-2.8-8.9-2.8-8.9,1.25-8.9,2.8,3.99,2.81,8.9,2.81Z"/>
      </g>
    </g>
  </g>
</svg>