<?xml version="1.0" encoding="utf-8"?>
<!-- Generator: Adobe Illustrator 27.6.1, SVG Export Plug-In . SVG Version: 6.00 Build 0)  -->
<svg version="1.1" id="Layer_1" xmlns="http://www.w3.org/2000/svg" xmlns:xlink="http://www.w3.org/1999/xlink" x="0px" y="0px"
	 viewBox="0 0 32 32" style="enable-background:new 0 0 32 32;" xml:space="preserve">
<style type="text/css">
	.st0{fill:#FFFFFF;}
</style>
<g>
	<g>
		<path class="st0" d="M19.19,23.47c-0.01,0.01-0.01,0.02-0.02,0.04c-0.31,0.54-2.46,3.85-2.54,4.01c0.14,0.37,0.44,1.2,0.56,1.51
			c0.49-0.63,2.9-3.4,3.34-3.54C20.98,25.35,19.19,23.47,19.19,23.47z"/>
		<path class="st0" d="M21.27,22.7c0.01,0,0.02,0.01,0.04,0.01c0.59,0.21,4.37,1.34,4.53,1.41c0.14,0.37,0.44,1.2,0.56,1.51
			c-0.78-0.17-4.41-0.72-4.84-0.53C21.13,25.3,21.27,22.7,21.27,22.7z"/>
	</g>
	<g>
		<path class="st0" d="M15.18,5.14C15.16,5.09,15.14,5.04,15.1,5c-0.72-1.61-1.74-2.65-2.41-2.41c-0.67,0.25-0.77,1.71-0.28,3.39
			c0.01,0.05,0.02,0.11,0.04,0.16l6.49,17.65c0,0,0,0.01,0,0.01c0,0,0,0.01,0,0.01c0.23,0.63,2.08,3.77,2.83,3.49
			c0.75-0.28,0.13-3.87-0.1-4.5c0-0.01,0-0.01-0.01-0.01c0,0,0-0.01,0-0.01L15.18,5.14z"/>
		<g>
			<g>
				<path class="st0" d="M14.7,10.87c-0.29,0.38-2.39,3.08-2.82,3.78c-0.21,0.39-4.19,6.74-4.26,6.99c0.17,0.47,0.34,0.91,0.42,1.14
					c0.69-0.55,6.26-5.69,6.58-5.99c0.49-0.18,1.94-0.73,2.1-0.79C16.88,15.94,14.7,10.87,14.7,10.87z"/>
				<path class="st0" d="M10.27,17.51c0.38,1.03,0.42,1.97,0.1,2.09c-0.33,0.12-0.9-0.62-1.28-1.66c-0.38-1.03-0.42-1.97-0.1-2.09
					C9.32,15.74,9.89,16.48,10.27,17.51z"/>
				<path class="st0" d="M12.6,13.94c0.38,1.03,0.42,1.97,0.1,2.09c-0.33,0.12-0.9-0.62-1.28-1.66c-0.38-1.03-0.42-1.97-0.1-2.09
					C11.65,12.16,12.22,12.9,12.6,13.94z"/>
			</g>
			<g>
				<path class="st0" d="M16.52,10.2c0.47,0.1,3.82,0.8,4.6,1.05c0.41,0.16,7.56,2.42,7.78,2.57c0.17,0.47,0.34,0.91,0.42,1.14
					c-0.88,0.03-8.46-0.28-8.89-0.31c-0.49,0.18-1.95,0.7-2.11,0.76C18.15,15.47,16.52,10.2,16.52,10.2z"/>
				<path class="st0" d="M24.2,12.39c0.38,1.03,0.95,1.77,1.28,1.66c0.33-0.12,0.28-1.06-0.1-2.09c-0.38-1.03-0.95-1.77-1.28-1.65
					C23.78,10.42,23.82,11.36,24.2,12.39z"/>
				<path class="st0" d="M20.12,11.17c0.38,1.03,0.95,1.77,1.28,1.66c0.33-0.12,0.28-1.06-0.1-2.09c-0.38-1.03-0.95-1.78-1.28-1.66
					C19.69,9.2,19.74,10.14,20.12,11.17z"/>
			</g>
		</g>
	</g>
</g>
</svg>
