<?xml version="1.0" encoding="utf-8"?>
<!-- Generator: Adobe Illustrator 27.6.1, SVG Export Plug-In . SVG Version: 6.00 Build 0)  -->
<svg version="1.1" id="Layer_1" xmlns="http://www.w3.org/2000/svg" xmlns:xlink="http://www.w3.org/1999/xlink" x="0px" y="0px"
	 viewBox="0 0 203 196" style="enable-background:new 0 0 203 196;" xml:space="preserve">
<style type="text/css">
	.st0{fill:none;stroke:#252456;stroke-width:8;stroke-linecap:round;stroke-linejoin:round;stroke-miterlimit:10;}
</style>
<g>
	<polygon class="st0" points="132.08,177.06 20.08,177.06 20.08,25.06 108.08,25.06 132.08,49.06 	"/>
	<polyline class="st0" points="164.08,153.06 176.08,177.06 188.08,153.06 	"/>
	<line class="st0" x1="44.08" y1="57.06" x2="68.08" y2="57.06"/>
	<line class="st0" x1="60.08" y1="81.06" x2="108.08" y2="81.06"/>
	<line class="st0" x1="44.08" y1="105.06" x2="108.08" y2="105.06"/>
	<line class="st0" x1="44.08" y1="129.06" x2="108.08" y2="129.06"/>
	<line class="st0" x1="44.08" y1="153.06" x2="100.08" y2="153.06"/>
	<polyline class="st0" points="108.08,25.06 108.08,49.06 132.08,49.06 	"/>
	
		<rect x="164.08" y="81.06" transform="matrix(-1 -4.502011e-11 4.502011e-11 -1 352.1591 234.1104)" class="st0" width="24" height="72"/>
	<path class="st0" d="M164.08,65.06h24v-28c0-6.63-5.37-12-12-12h0c-6.63,0-12,5.37-12,12V65.06z"/>
	<line class="st0" x1="188.08" y1="65.06" x2="188.08" y2="81.06"/>
	<line class="st0" x1="164.08" y1="65.06" x2="164.08" y2="81.06"/>
	<path class="st0" d="M164.08,41.06L164.08,41.06c-8.84,0-16,7.16-16,16v24"/>
</g>
</svg>
