<?xml version="1.0" encoding="utf-8"?>
<!-- Generator: Adobe Illustrator 27.6.1, SVG Export Plug-In . SVG Version: 6.00 Build 0)  -->
<svg version="1.1" id="Layer_1" xmlns="http://www.w3.org/2000/svg" xmlns:xlink="http://www.w3.org/1999/xlink" x="0px" y="0px"
	 viewBox="0 0 203 196" style="enable-background:new 0 0 203 196;" xml:space="preserve">
<style type="text/css">
	.st0{fill:none;stroke:#252456;stroke-width:8;stroke-linecap:round;stroke-linejoin:round;stroke-miterlimit:10;}
</style>
<g>
	<path class="st0" d="M28.19,35.04h10.93c18.95,0,37.48-5.61,53.25-16.12l11.82-7.88L116,18.91c15.77,10.51,34.3,16.12,53.25,16.12
		h10.93v46.04c0,35.64-19.75,68.35-51.29,84.95l-24.71,13.01l-24.71-13.01c-31.54-16.6-51.29-49.31-51.29-84.95V35.04z"/>
	<path class="st0" d="M86.93,150.14c-26.37-13.59-42.74-40.16-42.74-69.34V51.27c20.38-0.9,40.01-7.18,57.06-18.31l2.94-1.92
		l2.94,1.92c17.05,11.13,36.68,17.42,57.06,18.31V80.8c0,29.18-16.38,55.75-42.74,69.33l-17.26,8.9L86.93,150.14z"/>
	<polygon class="st0" points="68.19,95.04 96.19,123.04 140.19,79.04 128.19,67.04 96.19,99.04 80.19,83.04 	"/>
</g>
</svg>
