<?xml version="1.0" encoding="utf-8"?>
<!-- Generator: Adobe Illustrator 27.6.1, SVG Export Plug-In . SVG Version: 6.00 Build 0)  -->
<svg version="1.1" id="Layer_1" xmlns="http://www.w3.org/2000/svg" xmlns:xlink="http://www.w3.org/1999/xlink" x="0px" y="0px"
	 viewBox="0 0 203 196" style="enable-background:new 0 0 203 196;" xml:space="preserve">
<style type="text/css">
	.st0{fill:none;stroke:#252456;stroke-width:8;stroke-linecap:round;stroke-linejoin:round;stroke-miterlimit:10;}
</style>
<g>
	<rect x="12.19" y="26.04" class="st0" width="26.27" height="87.57"/>
	<line class="st0" x1="38.46" y1="34.79" x2="86.62" y2="34.79"/>
	<polyline class="st0" points="38.46,96.09 51.59,96.09 73.48,131.12 95.38,131.12 	"/>
	<polyline class="st0" points="82.24,104.85 95.38,131.12 117.27,131.12 	"/>
	<polyline class="st0" points="104.13,100.47 117.27,131.12 134.78,122.36 	"/>
	<path class="st0" d="M121.65,91.71l13.14,30.65l17.51-13.14l-26.27-48.16l-17.51-8.76L94.63,66.19c-6.84,6.84-17.93,6.84-24.77,0
		l-5.13-5.13l30.65-35.03h43.78l30.65,17.51"/>
	<line class="st0" x1="147.92" y1="96.09" x2="169.81" y2="96.09"/>
	<rect x="169.81" y="26.04" class="st0" width="26.27" height="87.57"/>
</g>
</svg>
