<?xml version="1.0" encoding="UTF-8"?>
<svg id="Capa_1" data-name="Capa 1" xmlns="http://www.w3.org/2000/svg" xmlns:xlink="http://www.w3.org/1999/xlink" viewBox="0 0 1080 1080">
  <defs>
    <style>
      .cls-1 {
        fill: #252854;
      }

      .cls-2 {
        fill: #abd579;
      }

      .cls-3 {
        fill: #020000;
      }

      .cls-4, .cls-5 {
        fill: none;
      }

      .cls-5 {
        clip-path: url(#clippath);
      }
    </style>
    <clipPath id="clippath">
      <rect class="cls-4" width="1080" height="1080"/>
    </clipPath>
  </defs>
  <g class="cls-5">
    <g>
      <path class="cls-1" d="m121.08,343.65h98.63c99.92,0,167.97,61.59,167.97,158.5s-68.05,158.5-167.97,158.5h-98.63v-317h0Zm98.63,248.95c57.28,0,93.89-32.3,93.89-90.45s-36.61-90.45-93.89-90.45h-27.14v180.89h27.14Z"/>
      <path class="cls-1" d="m646.98,502.15c0-93.96,67.23-159.93,159.93-159.93,48.44,0,90.61,16.7,123.6,55.12l-50.53,47.6c-17.12-22.96-43.84-37.16-73.08-37.16-53.45,0-88.94,39.25-88.94,94.79s38,94.79,88.94,94.79c43.01,0,72.24-25.47,78.09-60.97h-89.78v-60.97h163.69v26.72c0,95.21-59.71,159.93-152,159.93s-159.93-65.98-159.93-159.93"/>
      <polygon class="cls-3" points="121.08 704.89 138.54 704.89 138.54 710.21 126.8 710.21 126.8 718 138.41 718 138.41 723.32 126.8 723.32 126.8 731.85 138.76 731.85 138.76 737.17 121.08 737.17 121.08 704.89"/>
      <path class="cls-3" d="m149.47,737.17v-5.41c2.64.26,4.31.35,5.58.35,3.91,0,5.76-1.23,5.76-3.87,0-1.71-.83-3.03-3.38-4.71l-3.43-2.2c-3.34-2.2-4.97-4.93-4.97-8.27,0-5.36,3.91-8.57,10.55-8.57,1.41,0,2.95.13,4.75.39v5.1c-1.76-.22-3.3-.39-4.57-.39-3.34,0-5.01,1.14-5.01,3.3,0,1.49.83,2.68,2.99,4.04l2.99,1.93c4.04,2.59,5.85,5.5,5.85,9.28,0,5.98-4.13,9.41-11.39,9.41-1.41,0-3.12-.08-5.71-.39"/>
      <polygon class="cls-3" points="181.67 710.21 173.93 710.21 173.93 704.9 195.13 704.9 195.13 710.21 187.39 710.21 187.39 737.17 181.67 737.17 181.67 710.21"/>
      <path class="cls-3" d="m204.56,724.9v-20.01h5.71v19.61c0,5.19,2.07,7.83,6.02,7.83s6.11-2.69,6.11-7.83v-19.61h5.71v20.01c0,8.22-4.39,12.89-11.83,12.89s-11.74-4.66-11.74-12.89"/>
      <path class="cls-3" d="m240.46,704.9h9.28c9.89,0,16.88,6.29,16.88,16.14s-6.99,16.14-16.88,16.14h-9.28v-32.27h0Zm9.28,26.82c6.55,0,10.95-4,10.95-10.68s-4.4-10.68-10.95-10.68h-3.56v21.37h3.56Z"/>
      <rect class="cls-3" x="277.64" y="704.89" width="5.71" height="32.27"/>
      <path class="cls-3" d="m294.32,721.03c0-9.85,7.34-16.75,16.71-16.75s16.71,6.9,16.71,16.75-7.34,16.76-16.71,16.76-16.71-6.9-16.71-16.76m16.71,11.26c6.02,0,10.77-4.57,10.77-11.26s-4.75-11.3-10.77-11.3-10.77,4.62-10.77,11.3,4.7,11.26,10.77,11.26"/>
      <path class="cls-3" d="m354.87,704.9h9.28c9.89,0,16.88,6.29,16.88,16.14s-6.99,16.14-16.88,16.14h-9.28v-32.27h0Zm9.28,26.82c6.55,0,10.95-4,10.95-10.68s-4.4-10.68-10.95-10.68h-3.56v21.37h3.56Z"/>
      <polygon class="cls-3" points="392.05 704.89 409.51 704.89 409.51 710.21 397.76 710.21 397.76 718 409.37 718 409.37 723.32 397.76 723.32 397.76 731.85 409.72 731.85 409.72 737.17 392.05 737.17 392.05 704.89"/>
      <path class="cls-3" d="m435.92,721.03c0-9.85,7.12-16.53,17.06-16.53,1.45,0,3.08.13,4.62.39v5.28c-1.41-.26-2.86-.44-4.27-.44-6.9,0-11.48,4.49-11.48,11.3s4.57,11.3,11.48,11.3c1.41,0,2.86-.18,4.27-.44v5.27c-1.54.26-3.16.39-4.62.39-9.94,0-17.06-6.68-17.06-16.53"/>
      <path class="cls-3" d="m466.02,721.03c0-9.85,7.34-16.75,16.71-16.75s16.71,6.9,16.71,16.75-7.34,16.76-16.71,16.76-16.71-6.9-16.71-16.76m16.71,11.26c6.02,0,10.77-4.57,10.77-11.26s-4.75-11.3-10.77-11.3-10.77,4.62-10.77,11.3,4.7,11.26,10.77,11.26"/>
      <polygon class="cls-3" points="510.42 704.89 516.18 704.89 526.42 722.66 536.62 704.89 542.29 704.89 542.29 737.17 536.84 737.17 536.84 714.66 528.14 729.91 524.62 729.91 515.82 714.61 515.82 737.17 510.42 737.17 510.42 704.89"/>
      <polygon class="cls-3" points="554.95 704.89 572.4 704.89 572.4 710.21 560.66 710.21 560.66 718 572.27 718 572.27 723.32 560.66 723.32 560.66 731.85 572.62 731.85 572.62 737.17 554.95 737.17 554.95 704.89"/>
      <path class="cls-3" d="m590.05,723.58v13.59h-5.71v-32.27h9.85c6.51,0,10.55,3.39,10.55,9.54,0,4.7-3.17,8.18-8.44,8.92l10.46,13.81h-6.95l-9.76-13.59h0Zm3.83-4.53c3.16,0,5.01-1.8,5.01-4.62s-1.85-4.57-5.01-4.57h-3.83v9.19h3.83Z"/>
      <path class="cls-3" d="m614.35,721.03c0-9.85,7.13-16.53,17.06-16.53,1.45,0,3.08.13,4.62.39v5.28c-1.41-.26-2.86-.44-4.27-.44-6.9,0-11.48,4.49-11.48,11.3s4.57,11.3,11.48,11.3c1.41,0,2.86-.18,4.27-.44v5.27c-1.54.26-3.17.39-4.62.39-9.94,0-17.06-6.68-17.06-16.53"/>
      <rect class="cls-3" x="647" y="704.89" width="5.71" height="32.27"/>
      <path class="cls-3" d="m663.68,721.03c0-9.85,7.35-16.75,16.71-16.75s16.71,6.9,16.71,16.75-7.34,16.76-16.71,16.76-16.71-6.9-16.71-16.76m16.71,11.26c6.03,0,10.77-4.57,10.77-11.26s-4.75-11.3-10.77-11.3-10.77,4.62-10.77,11.3,4.71,11.26,10.77,11.26"/>
      <polygon class="cls-3" points="724.22 704.89 741.68 704.89 741.68 710.21 729.94 710.21 729.94 718 741.55 718 741.55 723.32 729.94 723.32 729.94 731.85 741.9 731.85 741.9 737.17 724.22 737.17 724.22 704.89"/>
      <polygon class="cls-3" points="763.29 725.82 756.61 737.17 750.54 737.17 760.21 720.68 750.94 704.9 757.31 704.9 763.43 715.27 769.49 704.9 775.56 704.9 766.46 720.41 776.31 737.17 769.98 737.17 763.29 725.82"/>
      <polygon class="cls-3" points="790.58 710.21 782.84 710.21 782.84 704.9 804.03 704.9 804.03 710.21 796.29 710.21 796.29 737.17 790.58 737.17 790.58 710.21"/>
      <polygon class="cls-3" points="813.77 704.89 831.23 704.89 831.23 710.21 819.49 710.21 819.49 718 831.09 718 831.09 723.32 819.49 723.32 819.49 731.85 831.45 731.85 831.45 737.17 813.77 737.17 813.77 704.89"/>
      <path class="cls-3" d="m848.88,723.58v13.59h-5.72v-32.27h9.85c6.5,0,10.55,3.39,10.55,9.54,0,4.7-3.16,8.18-8.44,8.92l10.46,13.81h-6.94l-9.76-13.59h0Zm3.83-4.53c3.16,0,5.01-1.8,5.01-4.62s-1.85-4.57-5.01-4.57h-3.83v9.19h3.83Z"/>
      <rect class="cls-3" x="875.42" y="704.89" width="5.72" height="32.27"/>
      <path class="cls-3" d="m892.1,721.03c0-9.85,7.34-16.75,16.71-16.75s16.71,6.9,16.71,16.75-7.34,16.76-16.71,16.76-16.71-6.9-16.71-16.76m16.71,11.26c6.03,0,10.77-4.57,10.77-11.26s-4.75-11.3-10.77-11.3-10.77,4.62-10.77,11.3,4.71,11.26,10.77,11.26"/>
      <path class="cls-3" d="m942.21,723.58v13.59h-5.72v-32.27h9.85c6.5,0,10.55,3.39,10.55,9.54,0,4.7-3.16,8.18-8.44,8.92l10.46,13.81h-6.94l-9.76-13.59h0Zm3.83-4.53c3.16,0,5.01-1.8,5.01-4.62s-1.85-4.57-5.01-4.57h-3.83v9.19h3.83Z"/>
      <path class="cls-1" d="m438.54,659.62h12.85l19.15-62.59,1.09-3.58,38.89-13.59,34.14,48.49,24.53-25.47,2.87,9.24,14.55,47.5h74.03l-38.09-112.15-.62-1.71-.27-.91-68-200.18h-69.32l-93.17,276.5-.08.23-.08.23-12.8,38h60.33,0Zm80.03-219.95l40.63,130.99-6.39,2.64-34.38-68.95-27.24,25,27.37-89.68h.01Zm-127.4,181.5l-.15.45"/>
      <polygon class="cls-2" points="388.56 628.93 509.26 545.56 544.3 609.61 622.88 548.43 619.85 539.53 547.02 596.04 512.38 532.56 393.32 614.8 388.56 628.93"/>
    </g>
  </g>
</svg>