<?xml version="1.0" encoding="UTF-8"?>
<svg id="Capa_1" data-name="Capa 1" xmlns="http://www.w3.org/2000/svg" xmlns:xlink="http://www.w3.org/1999/xlink" viewBox="0 0 1080 1081">
  <defs>
    <style>
      .cls-1 {
        fill: #fff;
      }

      .cls-2 {
        fill: #252854;
      }

      .cls-3 {
        fill: #abd579;
      }

      .cls-4 {
        fill: #020000;
      }

      .cls-5, .cls-6 {
        fill: none;
      }

      .cls-6 {
        clip-path: url(#clippath);
      }
    </style>
    <clipPath id="clippath">
      <rect class="cls-5" y="1" width="1080" height="1080"/>
    </clipPath>
  </defs>
  <rect class="cls-1" width="1080" height="1081"/>
  <g class="cls-6">
    <path class="cls-2" d="m121.08,344.65h98.63c99.92,0,167.97,61.59,167.97,158.5s-68.05,158.5-167.97,158.5h-98.63v-317Zm98.63,248.95c57.28,0,93.89-32.3,93.89-90.45s-36.61-90.45-93.89-90.45h-27.14v180.89h27.14Z"/>
    <path class="cls-2" d="m646.98,503.15c0-93.96,67.23-159.93,159.93-159.93,48.44,0,90.61,16.7,123.6,55.12l-50.53,47.6c-17.12-22.96-43.84-37.16-73.08-37.16-53.45,0-88.94,39.25-88.94,94.79s38,94.79,88.94,94.79c43.01,0,72.24-25.47,78.09-60.97h-89.78v-60.97h163.69v26.72c0,95.21-59.71,159.93-152,159.93s-159.93-65.98-159.93-159.93"/>
    <polygon class="cls-4" points="121.08 705.89 138.54 705.89 138.54 711.21 126.8 711.21 126.8 719 138.41 719 138.41 724.32 126.8 724.32 126.8 732.85 138.76 732.85 138.76 738.17 121.08 738.17 121.08 705.89"/>
    <path class="cls-4" d="m149.47,738.17v-5.41c2.64.26,4.31.35,5.58.35,3.91,0,5.76-1.23,5.76-3.87,0-1.71-.83-3.03-3.38-4.71l-3.43-2.2c-3.34-2.2-4.97-4.93-4.97-8.27,0-5.36,3.91-8.57,10.55-8.57,1.41,0,2.95.13,4.75.39v5.1c-1.76-.22-3.3-.39-4.57-.39-3.34,0-5.01,1.14-5.01,3.3,0,1.49.83,2.68,2.99,4.04l2.99,1.93c4.04,2.59,5.85,5.5,5.85,9.28,0,5.98-4.13,9.41-11.39,9.41-1.41,0-3.12-.08-5.71-.39"/>
    <polygon class="cls-4" points="181.67 711.21 173.93 711.21 173.93 705.9 195.13 705.9 195.13 711.21 187.39 711.21 187.39 738.17 181.67 738.17 181.67 711.21"/>
    <path class="cls-4" d="m204.56,725.9v-20.01h5.71v19.61c0,5.19,2.07,7.83,6.02,7.83s6.11-2.69,6.11-7.83v-19.61h5.71v20.01c0,8.22-4.39,12.89-11.83,12.89s-11.74-4.66-11.74-12.89"/>
    <path class="cls-4" d="m240.46,705.9h9.28c9.89,0,16.88,6.29,16.88,16.14s-6.99,16.14-16.88,16.14h-9.28v-32.27Zm9.28,26.82c6.55,0,10.95-4,10.95-10.68s-4.4-10.68-10.95-10.68h-3.56v21.37h3.56Z"/>
    <rect class="cls-4" x="277.64" y="705.89" width="5.71" height="32.27"/>
    <path class="cls-4" d="m294.32,722.03c0-9.85,7.34-16.75,16.71-16.75s16.71,6.9,16.71,16.75-7.34,16.76-16.71,16.76-16.71-6.9-16.71-16.76m16.71,11.26c6.02,0,10.77-4.57,10.77-11.26s-4.75-11.3-10.77-11.3-10.77,4.62-10.77,11.3,4.7,11.26,10.77,11.26"/>
    <path class="cls-4" d="m354.87,705.9h9.28c9.89,0,16.88,6.29,16.88,16.14s-6.99,16.14-16.88,16.14h-9.28v-32.27Zm9.28,26.82c6.55,0,10.95-4,10.95-10.68s-4.4-10.68-10.95-10.68h-3.56v21.37h3.56Z"/>
    <polygon class="cls-4" points="392.05 705.89 409.51 705.89 409.51 711.21 397.76 711.21 397.76 719 409.37 719 409.37 724.32 397.76 724.32 397.76 732.85 409.72 732.85 409.72 738.17 392.05 738.17 392.05 705.89"/>
    <path class="cls-4" d="m435.92,722.03c0-9.85,7.12-16.53,17.06-16.53,1.45,0,3.08.13,4.62.39v5.28c-1.41-.26-2.86-.44-4.27-.44-6.9,0-11.48,4.49-11.48,11.3s4.57,11.3,11.48,11.3c1.41,0,2.86-.18,4.27-.44v5.27c-1.54.26-3.16.39-4.62.39-9.94,0-17.06-6.68-17.06-16.53"/>
    <path class="cls-4" d="m466.02,722.03c0-9.85,7.34-16.75,16.71-16.75s16.71,6.9,16.71,16.75-7.34,16.76-16.71,16.76-16.71-6.9-16.71-16.76m16.71,11.26c6.02,0,10.77-4.57,10.77-11.26s-4.75-11.3-10.77-11.3-10.77,4.62-10.77,11.3,4.7,11.26,10.77,11.26"/>
    <polygon class="cls-4" points="510.42 705.89 516.18 705.89 526.42 723.66 536.62 705.89 542.29 705.89 542.29 738.17 536.84 738.17 536.84 715.66 528.14 730.91 524.62 730.91 515.82 715.61 515.82 738.17 510.42 738.17 510.42 705.89"/>
    <polygon class="cls-4" points="554.95 705.89 572.4 705.89 572.4 711.21 560.66 711.21 560.66 719 572.27 719 572.27 724.32 560.66 724.32 560.66 732.85 572.62 732.85 572.62 738.17 554.95 738.17 554.95 705.89"/>
    <path class="cls-4" d="m590.05,724.58v13.59h-5.71v-32.27h9.85c6.51,0,10.55,3.39,10.55,9.54,0,4.7-3.17,8.18-8.44,8.92l10.46,13.81h-6.95l-9.76-13.59Zm3.83-4.53c3.16,0,5.01-1.8,5.01-4.62s-1.85-4.57-5.01-4.57h-3.83v9.19h3.83Z"/>
    <path class="cls-4" d="m614.35,722.03c0-9.85,7.13-16.53,17.06-16.53,1.45,0,3.08.13,4.62.39v5.28c-1.41-.26-2.86-.44-4.27-.44-6.9,0-11.48,4.49-11.48,11.3s4.57,11.3,11.48,11.3c1.41,0,2.86-.18,4.27-.44v5.27c-1.54.26-3.17.39-4.62.39-9.94,0-17.06-6.68-17.06-16.53"/>
    <rect class="cls-4" x="647" y="705.89" width="5.71" height="32.27"/>
    <path class="cls-4" d="m663.68,722.03c0-9.85,7.35-16.75,16.71-16.75s16.71,6.9,16.71,16.75-7.34,16.76-16.71,16.76-16.71-6.9-16.71-16.76m16.71,11.26c6.03,0,10.77-4.57,10.77-11.26s-4.75-11.3-10.77-11.3-10.77,4.62-10.77,11.3,4.71,11.26,10.77,11.26"/>
    <polygon class="cls-4" points="724.22 705.89 741.68 705.89 741.68 711.21 729.94 711.21 729.94 719 741.55 719 741.55 724.32 729.94 724.32 729.94 732.85 741.9 732.85 741.9 738.17 724.22 738.17 724.22 705.89"/>
    <polygon class="cls-4" points="763.29 726.82 756.61 738.17 750.54 738.17 760.21 721.68 750.94 705.9 757.31 705.9 763.43 716.27 769.49 705.9 775.56 705.9 766.46 721.41 776.31 738.17 769.98 738.17 763.29 726.82"/>
    <polygon class="cls-4" points="790.58 711.21 782.84 711.21 782.84 705.9 804.03 705.9 804.03 711.21 796.29 711.21 796.29 738.17 790.58 738.17 790.58 711.21"/>
    <polygon class="cls-4" points="813.77 705.89 831.23 705.89 831.23 711.21 819.49 711.21 819.49 719 831.09 719 831.09 724.32 819.49 724.32 819.49 732.85 831.45 732.85 831.45 738.17 813.77 738.17 813.77 705.89"/>
    <path class="cls-4" d="m848.88,724.58v13.59h-5.72v-32.27h9.85c6.5,0,10.55,3.39,10.55,9.54,0,4.7-3.16,8.18-8.44,8.92l10.46,13.81h-6.94l-9.76-13.59Zm3.83-4.53c3.16,0,5.01-1.8,5.01-4.62s-1.85-4.57-5.01-4.57h-3.83v9.19h3.83Z"/>
    <rect class="cls-4" x="875.42" y="705.89" width="5.72" height="32.27"/>
    <path class="cls-4" d="m892.1,722.03c0-9.85,7.34-16.75,16.71-16.75s16.71,6.9,16.71,16.75-7.34,16.76-16.71,16.76-16.71-6.9-16.71-16.76m16.71,11.26c6.03,0,10.77-4.57,10.77-11.26s-4.75-11.3-10.77-11.3-10.77,4.62-10.77,11.3,4.71,11.26,10.77,11.26"/>
    <path class="cls-4" d="m942.21,724.58v13.59h-5.72v-32.27h9.85c6.5,0,10.55,3.39,10.55,9.54,0,4.7-3.16,8.18-8.44,8.92l10.46,13.81h-6.94l-9.76-13.59Zm3.83-4.53c3.16,0,5.01-1.8,5.01-4.62s-1.85-4.57-5.01-4.57h-3.83v9.19h3.83Z"/>
    <path class="cls-2" d="m438.54,660.62h12.85l19.15-62.59,1.09-3.58,38.89-13.59,34.14,48.49,24.53-25.47,2.87,9.24,14.55,47.5h74.03l-38.09-112.15-.62-1.71-.27-.91-68-200.18h-69.32l-93.17,276.5-.08.23-.08.23-12.8,38h60.33Zm80.03-219.95l40.63,130.99-6.39,2.64-34.38-68.95-27.24,25,27.37-89.68Zm-127.4,181.5l-.15.45"/>
    <polygon class="cls-3" points="388.56 629.93 509.26 546.56 544.3 610.61 622.88 549.43 619.85 540.53 547.02 597.04 512.38 533.56 393.32 615.8 388.56 629.93"/>
  </g>
</svg>